<svg width="183" height="59" viewBox="0 0 183 59" fill="none"><path d="M23.9732 19.1275V28.198L14.1758 24.4531V15.4961L23.9732 19.1275Z" fill="#8102FF"></path><path d="M20.923 32.8168C20.8038 34.4443 18.8061 34.93 17.8578 34.9698C18.2548 35.2978 18.8089 35.2978 19.6338 34.9698C19.3939 35.8517 18.1749 36.1201 17.2799 36.2266C16.2614 36.3445 15.4814 36.8089 15.2864 37.377C13.3379 34.5523 16.0145 33.0071 17.5127 32.4731C19.2368 31.8625 20.533 31.533 21.2667 30.5176C21.4168 31.9377 20.0042 33.196 19.0643 33.5951C19.711 33.7513 20.5779 33.3267 20.923 32.8168Z" fill="#8102FF"></path><path d="M14.1774 15.4948V24.4518L14.1549 24.4433L13.2319 24.7998L13.1617 24.8267L12.1615 25.2201V25.2144L10.4178 25.8876V25.8975L8.42435 26.6588L6.43093 27.4285V27.4399L4.86396 28.0349L4.8345 28.0462L4.44452 28.1968V28.1939L4.4375 28.1968V19.1163L6.34395 18.4147L6.43093 18.382L8.42435 17.635V17.6336L10.4178 16.8838V16.8866L12.111 16.2518V16.2404L14.1535 15.4863H14.1549L14.1774 15.4948Z" fill="#8102FF"></path><path d="M13.3207 37.377C13.1257 36.8089 12.3457 36.3445 11.3258 36.2266C10.4308 36.1201 9.21316 35.8517 8.97328 34.9698C9.79814 35.2978 10.3523 35.2978 10.7493 34.9698C9.79955 34.93 7.80331 34.4443 7.68267 32.8168C8.02917 33.3267 8.89472 33.7513 9.54283 33.5951C8.60293 33.196 7.19028 31.9363 7.33898 30.5176C8.07406 31.533 9.37028 31.8625 11.0944 32.4731C12.5926 33.0057 15.2678 34.5523 13.3207 37.377Z" fill="#8102FF"></path><path d="M23.9732 19.1275V28.198L14.1758 24.4531V15.4961L23.9732 19.1275Z" fill="white"></path><path d="M20.923 32.8168C20.8038 34.4443 18.8061 34.93 17.8578 34.9698C18.2548 35.2978 18.8089 35.2978 19.6338 34.9698C19.3939 35.8517 18.1749 36.1201 17.2799 36.2266C16.2614 36.3445 15.4814 36.8089 15.2864 37.377C13.3379 34.5523 16.0145 33.0071 17.5127 32.4731C19.2368 31.8625 20.533 31.533 21.2667 30.5176C21.4168 31.9377 20.0042 33.196 19.0643 33.5951C19.711 33.7513 20.5779 33.3267 20.923 32.8168Z" fill="white"></path><path d="M14.1774 15.4948V24.4518L14.1549 24.4433L13.2319 24.7998L13.1617 24.8267L12.1615 25.2201V25.2144L10.4178 25.8876V25.8975L8.42435 26.6588L6.43093 27.4285V27.4399L4.86396 28.0349L4.8345 28.0462L4.44452 28.1968V28.1939L4.4375 28.1968V19.1163L6.34395 18.4147L6.43093 18.382L8.42435 17.635V17.6336L10.4178 16.8838V16.8866L12.111 16.2518V16.2404L14.1535 15.4863H14.1549L14.1774 15.4948Z" fill="white"></path><path d="M13.3207 37.377C13.1257 36.8089 12.3457 36.3445 11.3258 36.2266C10.4308 36.1201 9.21316 35.8517 8.97328 34.9698C9.79814 35.2978 10.3523 35.2978 10.7493 34.9698C9.79955 34.93 7.80331 34.4443 7.68267 32.8168C8.02917 33.3267 8.89472 33.7513 9.54283 33.5951C8.60293 33.196 7.19028 31.9363 7.33898 30.5176C8.07406 31.533 9.37028 31.8625 11.0944 32.4731C12.5926 33.0057 15.2678 34.5523 13.3207 37.377Z" fill="white"></path><path d="M20.923 32.8168C20.8038 34.4443 18.8061 34.93 17.8578 34.9698C18.2548 35.2978 18.8089 35.2978 19.6338 34.9698C19.3939 35.8517 18.1749 36.1201 17.2799 36.2266C16.2614 36.3445 15.4814 36.8089 15.2864 37.377C13.3379 34.5523 16.0145 33.0071 17.5127 32.4731C19.2368 31.8625 20.533 31.533 21.2667 30.5176C21.4168 31.9377 20.0042 33.196 19.0643 33.5951C19.711 33.7513 20.5779 33.3267 20.923 32.8168Z" fill="#8102FF"></path><path d="M13.3207 37.377C13.1257 36.8089 12.3457 36.3445 11.3258 36.2266C10.4308 36.1201 9.21316 35.8517 8.97328 34.9698C9.79814 35.2978 10.3523 35.2978 10.7493 34.9698C9.79955 34.93 7.80331 34.4443 7.68267 32.8168C8.02917 33.3267 8.89472 33.7513 9.54283 33.5951C8.60293 33.196 7.19028 31.9363 7.33898 30.5176C8.07406 31.533 9.37028 31.8625 11.0944 32.4731C12.5926 33.0057 15.2678 34.5523 13.3207 37.377Z" fill="#8102FF"></path><path d="M23.9756 19.1262V28.1968L14.1782 24.4518L14.1557 24.4433L13.2327 24.7998L13.1625 24.8267L12.1623 25.2144L10.4186 25.8876L8.42515 26.6588L6.43172 27.4285L4.86476 28.0349L4.8353 28.0462L4.44531 28.1968V19.1262L6.34475 18.4147L6.43172 18.382L8.42515 17.635V17.6336L10.4186 16.8866L12.1118 16.2518L14.1543 15.4863H14.1557L14.1782 15.4948L23.9756 19.1262Z" fill="#8102FF"></path><path d="M23.9732 19.1275V28.198L14.1758 24.4531V15.4961L23.9732 19.1275Z" fill="#8102FF"></path><path d="M20.923 32.8168C20.8038 34.4443 18.8061 34.93 17.8578 34.9698C18.2548 35.2978 18.8089 35.2978 19.6338 34.9698C19.3939 35.8517 18.1749 36.1201 17.2799 36.2266C16.2614 36.3445 15.4814 36.8089 15.2864 37.377C13.3379 34.5523 16.0145 33.0071 17.5127 32.4731C19.2368 31.8625 20.533 31.533 21.2667 30.5176C21.4168 31.9377 20.0042 33.196 19.0643 33.5951C19.711 33.7513 20.5779 33.3267 20.923 32.8168Z" fill="#8102FF"></path><path d="M14.1765 10.6445L0.351562 15.7884V30.7938C0.936544 35.0401 4.52079 44.0553 14.1765 46.1316C23.8322 44.0496 27.415 35.0344 28 30.7938V15.7884L14.1765 10.6445ZM26.0501 30.5069C25.5478 34.1539 22.47 41.8966 14.1765 43.6846C5.88294 41.8966 2.80372 34.1539 2.3015 30.5069V17.6175L14.1765 13.1994L26.0501 17.6175V30.5069Z" fill="#8102FF"></path><path d="M14.1774 15.4948V24.4518L14.1549 24.4433L13.2319 24.7998L13.1617 24.8267L12.1615 25.2201V25.2144L10.4178 25.8876V25.8975L8.42435 26.6588L6.43093 27.4285V27.4399L4.86396 28.0349L4.8345 28.0462L4.44452 28.1968V28.1939L4.4375 28.1968V19.1163L6.34395 18.4147L6.43093 18.382L8.42435 17.635V17.6336L10.4178 16.8838V16.8866L12.111 16.2518V16.2404L14.1535 15.4863H14.1549L14.1774 15.4948Z" fill="#8102FF"></path><path d="M13.3207 37.377C13.1257 36.8089 12.3457 36.3445 11.3258 36.2266C10.4308 36.1201 9.21316 35.8517 8.97328 34.9698C9.79814 35.2978 10.3523 35.2978 10.7493 34.9698C9.79955 34.93 7.80331 34.4443 7.68267 32.8168C8.02917 33.3267 8.89472 33.7513 9.54283 33.5951C8.60293 33.196 7.19028 31.9363 7.33898 30.5176C8.07406 31.533 9.37028 31.8625 11.0944 32.4731C12.5926 33.0057 15.2678 34.5523 13.3207 37.377Z" fill="#8102FF"></path><path d="M23.9732 19.1275V28.198L14.1758 24.4531V15.4961L23.9732 19.1275Z" fill="white"></path><path d="M20.923 32.8168C20.8038 34.4443 18.8061 34.93 17.8578 34.9698C18.2548 35.2978 18.8089 35.2978 19.6338 34.9698C19.3939 35.8517 18.1749 36.1201 17.2799 36.2266C16.2614 36.3445 15.4814 36.8089 15.2864 37.377C13.3379 34.5523 16.0145 33.0071 17.5127 32.4731C19.2368 31.8625 20.533 31.533 21.2667 30.5176C21.4168 31.9377 20.0042 33.196 19.0643 33.5951C19.711 33.7513 20.5779 33.3267 20.923 32.8168Z" fill="white"></path><path d="M14.1774 15.4948V24.4518L14.1549 24.4433L13.2319 24.7998L13.1617 24.8267L12.1615 25.2201V25.2144L10.4178 25.8876V25.8975L8.42435 26.6588L6.43093 27.4285V27.4399L4.86396 28.0349L4.8345 28.0462L4.44452 28.1968V28.1939L4.4375 28.1968V19.1163L6.34395 18.4147L6.43093 18.382L8.42435 17.635V17.6336L10.4178 16.8838V16.8866L12.111 16.2518V16.2404L14.1535 15.4863H14.1549L14.1774 15.4948Z" fill="white"></path><path d="M13.3207 37.377C13.1257 36.8089 12.3457 36.3445 11.3258 36.2266C10.4308 36.1201 9.21316 35.8517 8.97328 34.9698C9.79814 35.2978 10.3523 35.2978 10.7493 34.9698C9.79955 34.93 7.80331 34.4443 7.68267 32.8168C8.02917 33.3267 8.89472 33.7513 9.54283 33.5951C8.60293 33.196 7.19028 31.9363 7.33898 30.5176C8.07406 31.533 9.37028 31.8625 11.0944 32.4731C12.5926 33.0057 15.2678 34.5523 13.3207 37.377Z" fill="white"></path><path d="M14.3081 26.582L14.1762 26.6303L4.34375 30.2801C4.7646 33.3165 7.31776 39.7313 14.1762 41.2807L14.3081 41.3105C17.7184 40.5621 20.0597 38.5682 21.5944 36.3797C23.1291 34.1913 23.867 31.8068 24.0732 30.273L14.3081 26.582ZM13.3191 37.3753C13.1241 36.8072 12.3441 36.3428 11.3242 36.2249C10.4292 36.1184 9.21158 35.85 8.9717 34.9681C9.79657 35.2961 10.3507 35.2961 10.7477 34.9681C9.79797 34.9283 7.80173 34.4426 7.68109 32.8151C8.02759 33.325 8.89314 33.7496 9.54125 33.5934C8.60135 33.1943 7.1887 31.9346 7.3374 30.5159C8.07248 31.5313 9.3687 31.8608 11.0928 32.4714C12.591 33.0054 15.2662 34.552 13.3191 37.3767V37.3753ZM20.9224 32.8151C20.8032 34.4426 18.8056 34.9283 17.8572 34.9681C18.2542 35.2961 18.8084 35.2961 19.6332 34.9681C19.3933 35.85 18.1743 36.1184 17.2793 36.2249C16.2608 36.3428 15.4808 36.8072 15.2858 37.3753C13.3373 34.5506 16.0139 33.0054 17.5121 32.4714C19.2362 31.8608 20.5324 31.5313 21.2661 30.5159C21.4162 31.936 20.0036 33.1943 19.0637 33.5934C19.7104 33.751 20.5773 33.3264 20.9224 32.8166V32.8151Z" fill="#8102FF"></path><path d="M20.923 32.8168C20.8038 34.4443 18.8061 34.93 17.8578 34.9698C18.2548 35.2978 18.8089 35.2978 19.6338 34.9698C19.3939 35.8517 18.1749 36.1201 17.2799 36.2266C16.2614 36.3445 15.4814 36.8089 15.2864 37.377C13.3379 34.5523 16.0145 33.0071 17.5127 32.4731C19.2368 31.8625 20.533 31.533 21.2667 30.5176C21.4168 31.9377 20.0042 33.196 19.0643 33.5951C19.711 33.7513 20.5779 33.3267 20.923 32.8168Z" fill="#8102FF"></path><path d="M13.3207 37.377C13.1257 36.8089 12.3457 36.3445 11.3258 36.2266C10.4308 36.1201 9.21316 35.8517 8.97328 34.9698C9.79814 35.2978 10.3523 35.2978 10.7493 34.9698C9.79955 34.93 7.80331 34.4443 7.68267 32.8168C8.02917 33.3267 8.89472 33.7513 9.54283 33.5951C8.60293 33.196 7.19028 31.9363 7.33898 30.5176C8.07406 31.533 9.37028 31.8625 11.0944 32.4731C12.5926 33.0057 15.2678 34.5523 13.3207 37.377Z" fill="#8102FF"></path><path d="M23.9756 19.1262V28.1968L14.1782 24.4518L14.1557 24.4433L13.2327 24.7998L13.1625 24.8267L12.1623 25.2144L10.4186 25.8876L8.42515 26.6588L6.43172 27.4285L4.86476 28.0349L4.8353 28.0462L4.44531 28.1968V19.1262L6.34475 18.4147L6.43172 18.382L8.42515 17.635V17.6336L10.4186 16.8866L12.1118 16.2518L14.1543 15.4863H14.1557L14.1782 15.4948L23.9756 19.1262Z" fill="#8102FF"></path><path d="M13.3207 37.377C13.1257 36.8089 12.3457 36.3445 11.3258 36.2266C10.4308 36.1201 9.21316 35.8517 8.97328 34.9698C9.79814 35.2978 10.3523 35.2978 10.7493 34.9698C9.79955 34.93 7.80331 34.4443 7.68267 32.8168C8.02917 33.3267 8.89472 33.7513 9.54283 33.5951C8.60293 33.196 7.19028 31.9363 7.33898 30.5176C8.07406 31.533 9.37028 31.8625 11.0944 32.4731C12.5926 33.0057 15.2678 34.5523 13.3207 37.377Z" fill="#FFF502"></path><path d="M20.923 32.8168C20.8038 34.4443 18.8061 34.93 17.8578 34.9698C18.2548 35.2978 18.8089 35.2978 19.6338 34.9698C19.3939 35.8517 18.1749 36.1201 17.2799 36.2266C16.2614 36.3445 15.4814 36.8089 15.2864 37.377C13.3379 34.5523 16.0145 33.0071 17.5127 32.4731C19.2368 31.8625 20.533 31.533 21.2667 30.5176C21.4168 31.9377 20.0042 33.196 19.0643 33.5951C19.711 33.7513 20.5779 33.3267 20.923 32.8168Z" fill="#FFF502"></path><path d="M6.43093 18.3828V27.4406L4.86396 28.0357L4.8345 28.047L4.44452 28.1947L4.4375 28.1976V19.117L6.34395 18.4155L6.43093 18.3828Z" fill="#FFF502"></path><path d="M14.1519 15.4863V24.4376L13.2302 24.7998L13.1601 24.8267L12.1599 25.2201V25.2144L12.1094 16.2518V16.2404L14.1519 15.4863Z" fill="#FFF502"></path><path d="M10.4153 16.8848V25.8985L8.42188 26.6598V17.6346L10.4153 16.8848Z" fill="#FFF502"></path><path d="M19.0642 18.9946C19.0726 18.9683 19.089 18.9455 19.1111 18.9293C19.1331 18.913 19.1597 18.9043 19.1869 18.9043C19.2142 18.9043 19.2407 18.913 19.2628 18.9293C19.2848 18.9455 19.3013 18.9683 19.3097 18.9946L19.8512 20.6846C19.8602 20.7104 19.8769 20.7327 19.899 20.7485C19.9211 20.7643 19.9476 20.7727 19.9746 20.7726H21.7282C21.7556 20.7724 21.7824 20.7811 21.8047 20.7973C21.827 20.8136 21.8435 20.8366 21.852 20.8631C21.8604 20.8895 21.8603 20.918 21.8517 20.9444C21.843 20.9708 21.8263 20.9937 21.8039 21.0098L20.3842 22.0522C20.3642 22.0692 20.3493 22.0915 20.3411 22.1165C20.333 22.1416 20.3319 22.1685 20.338 22.1942L20.8809 23.8828C20.8882 23.9089 20.8873 23.9366 20.8784 23.9621C20.8695 23.9876 20.8529 24.0097 20.831 24.0253C20.8091 24.0409 20.783 24.0493 20.7563 24.0492C20.7295 24.0491 20.7034 24.0406 20.6816 24.0248L19.2634 22.9796C19.2413 22.9636 19.2148 22.955 19.1876 22.955C19.1605 22.955 19.134 22.9636 19.1119 22.9796L17.6922 24.0248C17.6704 24.04 17.6445 24.0481 17.6181 24.0479C17.5916 24.0478 17.5658 24.0394 17.5442 24.0239C17.5226 24.0084 17.5063 23.9865 17.4974 23.9613C17.4885 23.936 17.4874 23.9086 17.4944 23.8828L18.0359 22.1942C18.042 22.1685 18.0409 22.1416 18.0327 22.1165C18.0245 22.0915 18.0096 22.0692 17.9896 22.0522L16.5699 21.0098C16.5476 20.9937 16.5308 20.9708 16.5222 20.9444C16.5135 20.918 16.5134 20.8895 16.5219 20.8631C16.5303 20.8366 16.5469 20.8136 16.5692 20.7973C16.5914 20.7811 16.6182 20.7724 16.6457 20.7726H18.3992C18.4263 20.7729 18.4529 20.7646 18.475 20.7488C18.4972 20.733 18.5138 20.7105 18.5227 20.6846L19.0642 18.9946Z" fill="#FFF502"></path><path d="M52.0937 27.9284C52.7277 27.2257 53.0862 26.3127 53.1016 25.3612C53.1016 23.4167 52.2034 21.8867 49.2894 21.8867H38V35.1036H49.7291C52.6431 35.1036 53.9069 33.4795 53.9069 31.2516C53.9079 29.7227 53.1904 28.6284 52.0937 27.9284ZM41.2994 24.3419H48.0977C48.9959 24.3419 49.8022 24.3419 49.8022 25.7016C49.8022 27.0762 48.9959 27.0762 48.1165 27.0762H41.2994V24.3419ZM48.9239 32.4835H41.2994V29.6878H48.9239C49.8033 29.6878 50.6096 29.6878 50.6096 31.0867C50.6096 32.4856 49.8022 32.4803 48.9228 32.4803L48.9239 32.4835Z" fill="black"></path><path d="M69.4832 24.5872V21.8867H55.918V35.1036H69.4832V32.4031H59.2174V29.7217H69.4832V27.2686H59.2174V24.5872H69.4832Z" fill="black"></path><path d="M74.8999 32.2546V21.8926H71.6016V35.1094H84.7971V32.2546H74.8999Z" fill="black"></path><path d="M90.2916 32.2546V21.8926H86.9922V35.1094H100.189V32.2546H90.2916Z" fill="black"></path><path d="M116.068 35.1055H119.714L113.081 21.8887H108.627L102.012 35.1055H105.64L107.015 32.2919H114.693L116.068 35.1055ZM108.242 29.7617L110.862 24.3988L113.464 29.7617H108.242Z" fill="black"></path><path d="M141.722 21.8867H125.961V24.7416H132.192V35.1036H135.493V24.7416H141.725L141.722 21.8867Z" fill="black"></path><path d="M163.369 21.8867H158.915L153.546 31.2146L148.176 21.8867H143.723V35.1036H147.022V26.041L152.349 35.1046H154.731L160.065 26.041V35.1046H163.363L163.369 21.8867Z" fill="black"></path><path d="M179.319 24.5872V21.8867H165.758V35.1036H179.319V32.4031H169.056V29.7217H179.319V27.2686H169.056V24.5872H179.319Z" fill="black"></path></svg>