<svg xmlns="http://www.w3.org/2000/svg"  viewBox="0 0 40 40" width="30px" height="30px" baseProfile="basic"><path fill="#c74343" d="M36.499,24.664c0-0.516-1.365-0.933-3.051-0.933c-1.467,0-2.688,0.317-2.981,0.737 c-2.903-1.371-5.807-2.743-8.71-4.115c-1.01-0.478-2.164-0.473-3.172,0.011c-3.091,1.487-6.181,2.974-9.272,4.461 c-0.699-0.102-1.544-0.163-2.454-0.163C4.449,24.664,2.5,25.082,2.5,25.598v2.801c0,0.027,0.027,0.052,0.036,0.078 c-0.118,0.449,0.057,0.975,0.525,1.196c4.566,2.157,9.132,4.314,13.699,6.471c1.159,0.548,2.484,0.543,3.64-0.013 c5.215-2.509,10.43-5.018,15.645-7.528c0.392-0.189,0.527-0.636,0.412-1.009c0.019-0.043,0.042-0.085,0.042-0.13V24.664z"/><path fill="#c74343" d="M18.566,37.052c-0.688,0-1.377-0.151-2.02-0.455L2.848,30.125c-0.587-0.276-0.916-0.911-0.836-1.563 L1.99,28.527L2,28.398v-2.801c0-1.33,3.72-1.434,4.859-1.434c0.839,0,1.655,0.051,2.373,0.146l9.137-4.396 c1.144-0.55,2.457-0.556,3.603-0.014l8.407,3.973c0.678-0.468,1.967-0.643,3.069-0.643c1.638,0,3.551,0.375,3.551,1.433v2.801 c0,0.061-0.009,0.115-0.021,0.162c0.102,0.59-0.182,1.17-0.717,1.428l-15.646,7.526C19.966,36.895,19.266,37.052,18.566,37.052z M3,28.292l0.06,0.159l-0.04,0.152c-0.058,0.22,0.012,0.502,0.255,0.617l13.7,6.472c1.021,0.482,2.19,0.478,3.208-0.012 l15.646-7.527c0.157-0.076,0.195-0.269,0.151-0.412l-0.055-0.176l0.073-0.17c0-0.001,0.001-0.002,0.001-0.002v-2.665 c-0.191-0.182-1.091-0.497-2.551-0.497c-1.529,0-2.442,0.347-2.571,0.523l-0.244,0.335l-0.38-0.169l-8.709-4.115 c-0.87-0.412-1.871-0.408-2.741,0.01l-9.41,4.527l-0.151-0.021c-0.706-0.103-1.53-0.157-2.382-0.157 c-2.215,0-3.54,0.339-3.859,0.551V28.292z"/><path fill="#f78f8f" d="M16.76,32.632c-4.566-2.042-9.132-4.083-13.699-6.125c-0.746-0.334-0.75-1.398-0.006-1.737 c5.177-2.357,10.353-4.715,15.53-7.072c1.007-0.459,2.161-0.463,3.172-0.011c4.761,2.129,9.522,4.257,14.283,6.386 c0.61,0.273,0.614,1.145,0.005,1.421c-5.215,2.375-10.43,4.75-15.645,7.124C19.244,33.145,17.92,33.15,16.76,32.632z"/><path fill="#c74343" d="M18.565,33.517c-0.685,0-1.37-0.143-2.009-0.428v-0.001L2.857,26.963 C2.33,26.728,2.002,26.222,2,25.642c-0.002-0.579,0.323-1.088,0.849-1.327l15.53-7.071c1.136-0.519,2.441-0.523,3.583-0.013 l14.282,6.386c0.465,0.208,0.755,0.655,0.756,1.166c0.001,0.51-0.286,0.957-0.749,1.167l-15.645,7.124 C19.959,33.368,19.262,33.517,18.565,33.517z M16.965,32.175c1.025,0.458,2.202,0.455,3.228-0.012l15.646-7.124 c0.146-0.066,0.162-0.2,0.162-0.255s-0.017-0.189-0.164-0.256l-14.282-6.386c-0.88-0.393-1.885-0.388-2.761,0.011l-15.53,7.071 C3.019,25.336,3,25.569,3,25.639c0,0.068,0.021,0.302,0.266,0.412L16.965,32.175z"/><path fill="#c74343" d="M36.499,18.479c0-0.516-1.365-0.933-3.051-0.933c-1.467,0-2.688,0.317-2.981,0.737 c-2.903-1.371-5.807-2.743-8.71-4.115c-1.01-0.478-2.164-0.473-3.172,0.011c-3.091,1.487-6.181,2.974-9.272,4.461 c-0.699-0.102-1.544-0.163-2.454-0.163C4.449,18.479,2.5,18.897,2.5,19.413v2.801c0,0.027,0.027,0.052,0.036,0.078 c-0.118,0.449,0.057,0.975,0.525,1.196c4.566,2.157,9.132,4.314,13.699,6.471c1.159,0.548,2.484,0.543,3.64-0.013 c5.215-2.509,10.43-5.018,15.645-7.528c0.392-0.189,0.527-0.636,0.412-1.009c0.019-0.043,0.042-0.085,0.042-0.13V18.479z"/><path fill="#c74343" d="M18.566,30.867c-0.688,0-1.377-0.152-2.02-0.456L2.848,23.94c-0.587-0.276-0.916-0.911-0.836-1.563 L1.99,22.343L2,22.214v-2.801c0-1.331,3.72-1.435,4.859-1.435c0.839,0,1.655,0.051,2.373,0.146l9.137-4.396 c1.144-0.55,2.457-0.555,3.603-0.014l8.407,3.973c0.678-0.468,1.967-0.643,3.069-0.643c1.638,0,3.551,0.375,3.551,1.433v2.802 c0,0.061-0.009,0.115-0.021,0.162c0.102,0.59-0.182,1.17-0.717,1.428l-15.646,7.526C19.966,30.71,19.267,30.867,18.566,30.867z M3,22.107l0.06,0.159l-0.04,0.152c-0.058,0.22,0.012,0.502,0.255,0.617l13.7,6.471c1.021,0.485,2.191,0.479,3.208-0.011 l15.646-7.527c0.157-0.076,0.195-0.269,0.151-0.412l-0.055-0.176l0.073-0.17c0-0.001,0.001-0.002,0.001-0.002v-2.666 c-0.191-0.182-1.091-0.497-2.551-0.497c-1.529,0-2.442,0.347-2.571,0.523l-0.244,0.335l-0.38-0.169l-8.709-4.115 c-0.87-0.411-1.871-0.409-2.741,0.01l-9.41,4.527l-0.151-0.021c-0.706-0.103-1.53-0.157-2.382-0.157 c-2.215,0-3.54,0.339-3.859,0.552V22.107z"/><path fill="#f78f8f" d="M16.76,26.446c-4.566-2.042-9.132-4.083-13.699-6.125c-0.746-0.334-0.75-1.398-0.006-1.737 c5.177-2.357,10.353-4.715,15.53-7.072c1.007-0.459,2.161-0.463,3.172-0.011c4.761,2.129,9.522,4.257,14.283,6.386 c0.61,0.273,0.614,1.145,0.005,1.421c-5.215,2.375-10.43,4.75-15.645,7.124C19.244,26.96,17.92,26.965,16.76,26.446z"/><path fill="#c74343" d="M18.565,27.331c-0.685,0-1.37-0.143-2.009-0.429L2.857,20.777C2.331,20.543,2.003,20.037,2,19.459 c-0.003-0.58,0.322-1.09,0.848-1.33l15.531-7.071c1.136-0.519,2.441-0.523,3.583-0.013l14.282,6.386 c0.465,0.208,0.755,0.655,0.756,1.166c0.001,0.51-0.286,0.957-0.749,1.167l-15.645,7.125 C19.959,27.184,19.263,27.331,18.565,27.331z M20.186,11.665c-0.476,0-0.95,0.102-1.393,0.303l-15.53,7.071 C3.018,19.151,3,19.385,3,19.454s0.021,0.302,0.266,0.41l13.699,6.126c1.028,0.46,2.205,0.455,3.228-0.012l15.646-7.125 c0.146-0.066,0.162-0.2,0.162-0.255s-0.017-0.189-0.164-0.256l-14.282-6.386C21.118,11.763,20.651,11.665,20.186,11.665z"/><path fill="#c74343" d="M36.499,12.294c0-0.516-1.365-0.933-3.051-0.933c-1.467,0-2.688,0.317-2.981,0.737 c-2.903-1.371-5.807-2.743-8.71-4.115c-1.01-0.478-2.164-0.473-3.172,0.011c-3.091,1.487-6.181,2.974-9.272,4.461 c-0.699-0.102-1.544-0.163-2.454-0.163C4.449,12.294,2.5,12.712,2.5,13.228v2.801c0,0.027,0.027,0.052,0.036,0.078 c-0.118,0.449,0.057,0.975,0.525,1.196c4.566,2.157,9.132,4.314,13.699,6.471c1.159,0.548,2.484,0.543,3.64-0.013 c5.215-2.509,10.43-5.018,15.645-7.528c0.392-0.189,0.527-0.636,0.412-1.009c0.019-0.043,0.042-0.085,0.042-0.13V12.294z"/><path fill="#c74343" d="M18.566,24.682c-0.688,0-1.377-0.151-2.02-0.455L2.848,17.755c-0.587-0.276-0.916-0.911-0.836-1.563 L1.99,16.157L2,16.028v-2.801c0-1.33,3.72-1.434,4.859-1.434c0.839,0,1.655,0.051,2.373,0.146l9.137-4.396 c1.144-0.551,2.457-0.555,3.603-0.014l8.407,3.973c0.678-0.468,1.967-0.643,3.069-0.643c1.638,0,3.551,0.375,3.551,1.433v2.801 c0,0.061-0.009,0.115-0.021,0.162c0.102,0.59-0.182,1.17-0.717,1.428l-15.646,7.526C19.966,24.524,19.266,24.682,18.566,24.682z M3,15.922l0.06,0.159l-0.04,0.152c-0.058,0.22,0.012,0.502,0.255,0.617l13.7,6.472c1.021,0.483,2.19,0.478,3.208-0.012 l15.646-7.527c0.157-0.076,0.195-0.269,0.151-0.412l-0.055-0.176l0.073-0.17c0-0.001,0.001-0.002,0.001-0.002v-2.665 c-0.191-0.182-1.091-0.497-2.551-0.497c-1.529,0-2.442,0.347-2.571,0.523l-0.244,0.335l-0.38-0.169l-8.709-4.115 c-0.87-0.411-1.871-0.409-2.741,0.01l-9.41,4.527l-0.151-0.021c-0.706-0.103-1.53-0.157-2.382-0.157 c-2.215,0-3.54,0.339-3.859,0.551V15.922z"/><path fill="#f78f8f" d="M16.76,20.261c-4.566-2.042-9.132-4.083-13.699-6.125c-0.746-0.334-0.75-1.398-0.006-1.737 c5.177-2.357,10.353-4.715,15.53-7.072c1.007-0.459,2.161-0.463,3.172-0.011c4.761,2.129,9.522,4.257,14.283,6.386 c0.61,0.273,0.614,1.145,0.005,1.421c-5.215,2.375-10.43,4.75-15.645,7.124C19.244,20.776,17.92,20.78,16.76,20.261z"/><path fill="#c74343" d="M18.566,21.146c-0.686,0-1.37-0.143-2.01-0.428v-0.001L2.857,14.593 C2.33,14.357,2.002,13.852,2,13.271c-0.002-0.579,0.323-1.088,0.849-1.327l15.53-7.071c1.136-0.519,2.441-0.523,3.583-0.013 l14.282,6.386c0.465,0.208,0.755,0.655,0.756,1.166c0.001,0.51-0.286,0.957-0.749,1.167l-15.645,7.124 C19.959,20.999,19.263,21.146,18.566,21.146z M16.965,19.806c1.03,0.46,2.206,0.454,3.227-0.013l15.646-7.124 c0.146-0.066,0.162-0.2,0.162-0.255s-0.017-0.189-0.164-0.256L21.554,5.772c-0.88-0.393-1.885-0.388-2.761,0.011l-15.53,7.071 C3.019,12.966,3,13.199,3,13.269c0,0.068,0.021,0.302,0.266,0.412L16.965,19.806z"/><g><path fill="#fff" d="M14.028,12.864c-0.001,0.598-1.586,1.181-2.925,1.198c-1.389,0.017-3.028-0.57-3.033-1.178 c-0.005-0.609,1.632-1.241,3.05-1.226C12.46,11.672,14.03,12.268,14.028,12.864z"/><path fill="#c74343" d="M11.044,14.563c-1.233,0-2.572-0.407-3.137-0.96c-0.276-0.271-0.336-0.537-0.338-0.713 c-0.001-0.18,0.056-0.452,0.336-0.731c0.584-0.583,1.98-0.998,3.22-1c1.393,0.015,3.405,0.63,3.403,1.707v0.001 c-0.004,1.064-2.023,1.679-3.419,1.696C11.088,14.563,11.065,14.563,11.044,14.563z M11.069,12.158 c-1.224,0-2.386,0.508-2.508,0.769c0.125,0.162,1.252,0.636,2.479,0.636c0.019,0,0.038,0,0.057,0 c1.134-0.014,2.185-0.443,2.407-0.7c-0.221-0.259-1.265-0.692-2.39-0.704C11.1,12.158,11.085,12.158,11.069,12.158z"/></g><g><path fill="#fff" d="M13.5,15.777c2.021,0.863,4.042,1.727,6.063,2.591c0.89-1.318,1.781-2.635,2.671-3.953 C19.323,14.869,16.412,15.324,13.5,15.777z"/><path fill="#c74343" d="M20.121,15.757l-0.428,0.634l-0.496,0.734L17.1,16.228L20.121,15.757 M22.234,14.415 c-2.912,0.454-5.823,0.909-8.734,1.362c2.021,0.863,4.042,1.727,6.063,2.591C20.454,17.05,21.344,15.733,22.234,14.415 L22.234,14.415z"/></g><g><path fill="#c74343" d="M17.767,8.846c-0.891,0.325-1.783,0.648-2.675,0.973c1.22,0.107,2.441,0.214,3.661,0.32 c0.389,0.644,0.776,1.289,1.165,1.932c0.239-0.584,0.478-1.169,0.716-1.753c1.041-0.081,2.082-0.162,3.123-0.243 c-0.807-0.339-1.614-0.679-2.421-1.019c0.206-0.492,0.411-0.984,0.617-1.477c-0.785,0.235-1.57,0.47-2.355,0.704 C18.732,7.941,17.866,7.6,17,7.258C17.256,7.788,17.512,8.317,17.767,8.846z"/><path fill="#c74343" d="M19.014,9.127l0.099,0.039L19.03,9.159L19.014,9.127 M20.217,9.141l-0.089,0.213l-0.186,0.014 l-0.196,0.48L19.61,9.622L19.404,9.28l0.15,0.059l0.331-0.099L20.217,9.141 M17,7.258c0.256,0.529,0.512,1.059,0.767,1.587 c-0.891,0.325-1.783,0.648-2.675,0.973c1.22,0.107,2.441,0.214,3.661,0.32c0.389,0.644,0.776,1.289,1.165,1.932 c0.239-0.584,0.478-1.169,0.716-1.753c1.041-0.081,2.082-0.162,3.123-0.243c-0.807-0.339-1.614-0.679-2.421-1.019 c0.206-0.492,0.411-0.984,0.617-1.477c-0.785,0.235-1.57,0.47-2.355,0.704C18.732,7.941,17.866,7.6,17,7.258L17,7.258z"/></g><path fill="#c74343" d="M22.144,12.767c1.838-0.733,3.678-1.468,5.516-2.201c1.588,0.675,3.177,1.35,4.765,2.025	c-1.783,0.709-3.564,1.418-5.347,2.128C25.434,14.068,23.789,13.418,22.144,12.767z"/><path fill="#c74343" d="M27.661,10.617c-0.004,1.292-0.008,2.583-0.012,3.875c1.592-0.634,3.185-1.267,4.777-1.901	C30.838,11.933,29.249,11.275,27.661,10.617z"/></svg>